<?xml version="1.0" standalone="no"?><!DOCTYPE svg PUBLIC "-//W3C//DTD SVG 1.1//EN" "http://www.w3.org/Graphics/SVG/1.1/DTD/svg11.dtd"><svg t="1765249298121" class="icon" viewBox="0 0 1024 1024" version="1.1" xmlns="http://www.w3.org/2000/svg" p-id="7968" xmlns:xlink="http://www.w3.org/1999/xlink" width="200" height="200"><path d="M618.003558 938.99776v-179.99872a35.99872 35.99872 0 0 0-35.99872-35.99872H442.003558a35.99872 35.99872 0 0 0-35.99872 35.99872v179.99872h211.99872z m-275.99872 0v-179.99872c0-55.22944 44.7744-99.99872 99.99872-99.99872h140.00128c55.22944 0 99.99872 44.76928 99.99872 99.99872v179.99872h94.51008c32.82944 0 60.48768-29.91104 60.48768-67.99872v-255.0016a32.00512 32.00512 0 0 1 64 0v255.0016c0 72.3712-55.14752 131.99872-124.48768 131.99872H247.489638c-69.33504 0-124.48768-59.62752-124.48768-131.99872v-255.0016a32 32 0 0 1 64 0v255.0016c0 38.08768 27.66336 67.99872 60.48768 67.99872h94.5152z m-287.37536-425.28256a32 32 0 1 1-45.25568-45.25568l410.20928-410.20928c51.34336-51.34336 134.58944-51.34336 185.92768 0l409.52832 409.52832a32.01024 32.01024 0 0 1 0 45.25568 32.01024 32.01024 0 0 1-45.25568 0l-409.52832-409.52832c-26.34752-26.34752-69.0688-26.34752-95.42144 0l-410.20416 410.20928z" fill="" p-id="7969"></path></svg>